<svg width="111" height="39" viewBox="0 0 111 39" fill="none" xmlns="http://www.w3.org/2000/svg">
<rect width="111" height="39" rx="8" fill="white"/>
<path d="M21.9771 18.8261C21.9872 18.0558 22.1967 17.3005 22.5858 16.6305C22.975 15.9605 23.5313 15.3976 24.203 14.9941C23.7763 14.3987 23.2134 13.9086 22.559 13.563C21.9046 13.2173 21.1767 13.0255 20.4331 13.0027C18.8469 12.84 17.3092 13.9301 16.5009 13.9301C15.677 13.9301 14.4326 13.0189 13.0925 13.0458C12.2257 13.0732 11.3809 13.3195 10.6405 13.7607C9.90004 14.2019 9.2892 14.823 8.86749 15.5634C7.04069 18.6538 8.40331 23.1955 10.1532 25.6935C11.0288 26.9167 12.052 28.2831 13.3909 28.2346C14.701 28.1815 15.1904 27.4183 16.7719 27.4183C18.3387 27.4183 18.7978 28.2346 20.1638 28.2038C21.5697 28.1815 22.4555 26.9752 23.3003 25.7404C23.9293 24.8688 24.4134 23.9055 24.7345 22.8862C23.9177 22.5487 23.2207 21.9837 22.7304 21.2617C22.24 20.5397 21.978 19.6926 21.9771 18.8261Z" fill="#01070D"/>
<path d="M19.3969 11.3599C20.1634 10.4607 20.5411 9.30508 20.4496 8.13829C19.2785 8.25847 18.1967 8.80536 17.4198 9.66999C17.04 10.0924 16.7491 10.5838 16.5637 11.1161C16.3783 11.6484 16.3021 12.2112 16.3395 12.7723C16.9253 12.7782 17.5048 12.6541 18.0344 12.4095C18.564 12.1648 19.0298 11.8059 19.3969 11.3599Z" fill="#01070D"/>
<path d="M38.5386 25.138H34.0676L32.9939 28.2357H31.1001L35.335 16.7749H37.3025L41.5374 28.2357H39.6114L38.5386 25.138ZM34.5306 23.7085H38.0746L36.3276 18.6811H36.2787L34.5306 23.7085Z" fill="#01070D"/>
<path d="M50.6833 24.0582C50.6833 26.6549 49.2609 28.3232 47.1144 28.3232C46.5707 28.351 46.0299 28.2286 45.5541 27.97C45.0782 27.7115 44.6864 27.3272 44.4237 26.8613H44.3831V31H42.6277V19.8798H44.3268V21.2696H44.3591C44.634 20.8059 45.0323 20.4236 45.5118 20.1635C45.9913 19.9034 46.534 19.7751 47.0821 19.7924C49.2526 19.7924 50.6833 21.4688 50.6833 24.0582ZM48.879 24.0582C48.879 22.3665 47.9843 21.2543 46.6191 21.2543C45.2779 21.2543 44.3757 22.3899 44.3757 24.0582C44.3757 25.7419 45.2779 26.8694 46.6191 26.8694C47.9843 26.8694 48.879 25.7653 48.879 24.0582Z" fill="#01070D"/>
<path d="M60.0958 24.0582C60.0958 26.6549 58.6734 28.3232 56.5269 28.3232C55.9832 28.351 55.4424 28.2286 54.9665 27.97C54.4907 27.7115 54.0989 27.3272 53.8362 26.8613H53.7956V31H52.0402V19.8798H53.7393V21.2696H53.7716C54.0464 20.8059 54.4448 20.4236 54.9242 20.1635C55.4037 19.9034 55.9464 19.7751 56.4946 19.7924C58.6651 19.7924 60.0958 21.4688 60.0958 24.0582ZM58.2915 24.0582C58.2915 22.3665 57.3968 21.2543 56.0316 21.2543C54.6903 21.2543 53.7882 22.3899 53.7882 24.0582C53.7882 25.7419 54.6903 26.8694 56.0316 26.8694C57.3968 26.8694 58.2915 25.7653 58.2915 24.0582Z" fill="#01070D"/>
<path d="M66.3167 25.0425C66.4467 26.179 67.5767 26.9252 69.1209 26.9252C70.6004 26.9252 71.6649 26.179 71.6649 25.1542C71.6649 24.2646 71.0229 23.7319 69.5028 23.3669L67.9826 23.0091C65.8287 22.5008 64.8288 21.5165 64.8288 19.9195C64.8288 17.942 66.5925 16.5838 69.0969 16.5838C71.5754 16.5838 73.2746 17.942 73.3318 19.9195H71.5598C71.4537 18.7757 70.486 18.0853 69.072 18.0853C67.6579 18.0853 66.6902 18.7838 66.6902 19.8005C66.6902 20.6108 67.3083 21.0875 68.8201 21.4525L70.1124 21.7626C72.5191 22.3187 73.519 23.2632 73.519 24.9396C73.519 27.0838 71.771 28.4267 68.9908 28.4267C66.3895 28.4267 64.6332 27.1154 64.5197 25.0424L66.3167 25.0425Z" fill="#01070D"/>
<path d="M77.3074 17.9024V19.8798H78.9337V21.2381H77.3074V25.8446C77.3074 26.5602 77.633 26.8937 78.3479 26.8937C78.541 26.8904 78.7337 26.8772 78.9254 26.854V28.2042C78.604 28.2628 78.2773 28.2894 77.9504 28.2835C76.219 28.2835 75.5437 27.6481 75.5437 26.0275V21.2381H74.3003V19.8798H75.5437V17.9024H77.3074Z" fill="#01070D"/>
<path d="M79.8755 24.0582C79.8755 21.4292 81.4603 19.7771 83.9314 19.7771C86.4109 19.7771 87.9883 21.4291 87.9883 24.0582C87.9883 26.6945 86.4193 28.3394 83.9314 28.3394C81.4445 28.3394 79.8755 26.6945 79.8755 24.0582ZM86.1997 24.0582C86.1997 22.2548 85.3538 21.1903 83.9314 21.1903C82.5091 21.1903 81.6641 22.2629 81.6641 24.0582C81.6641 25.8689 82.5091 26.9253 83.9314 26.9253C85.3538 26.9253 86.1997 25.8689 86.1997 24.0582Z" fill="#01070D"/>
<path d="M89.4356 19.8798H91.1098V21.3021H91.1504C91.2637 20.8579 91.53 20.4653 91.9046 20.1904C92.2792 19.9155 92.7392 19.7749 93.2074 19.7924C93.4097 19.7917 93.6114 19.8132 93.8088 19.8564V21.4607C93.5534 21.3845 93.287 21.3494 93.0201 21.3571C92.7651 21.3469 92.5109 21.3909 92.2749 21.4858C92.0389 21.5808 91.8267 21.7245 91.6529 21.9072C91.4792 22.0898 91.3479 22.307 91.2682 22.5439C91.1884 22.7808 91.1621 23.0317 91.1909 23.2795V28.2357H89.4355L89.4356 19.8798Z" fill="#01070D"/>
<path d="M101.902 25.7815C101.666 27.2984 100.154 28.3394 98.2199 28.3394C95.7321 28.3394 94.1879 26.7107 94.1879 24.0979C94.1879 21.4769 95.7404 19.7771 98.1461 19.7771C100.512 19.7771 102 21.3652 102 23.8987V24.4864H95.9599V24.59C95.932 24.8975 95.9715 25.2073 96.0755 25.4988C96.1796 25.7903 96.3459 26.0568 96.5635 26.2807C96.7811 26.5045 97.045 26.6806 97.3375 26.7972C97.6301 26.9137 97.9447 26.9682 98.2605 26.9568C98.6753 26.9948 99.0916 26.9009 99.4474 26.6891C99.8032 26.4774 100.08 26.1591 100.235 25.7815L101.902 25.7815ZM95.9682 23.2876H100.244C100.259 23.0111 100.217 22.7344 100.118 22.4749C100.019 22.2154 99.8661 21.9786 99.6691 21.7795C99.4721 21.5803 99.2352 21.4231 98.9731 21.3177C98.711 21.2123 98.4294 21.1609 98.1461 21.1669C97.8602 21.1652 97.5769 21.2189 97.3123 21.3248C97.0478 21.4307 96.8074 21.5867 96.6049 21.7839C96.4024 21.9811 96.2419 22.2155 96.1326 22.4735C96.0234 22.7316 95.9675 23.0083 95.9682 23.2876Z" fill="#01070D"/>
<path d="M33.2831 10.4763H34.0367C34.1665 10.4921 34.2981 10.4814 34.4235 10.445C34.5488 10.4086 34.665 10.3472 34.7648 10.2648C34.8647 10.1823 34.9459 10.0805 35.0035 9.96582C35.0611 9.85114 35.0937 9.72604 35.0994 9.59842C35.0994 9.09054 34.7083 8.76247 34.045 8.76247C33.9121 8.74433 33.7768 8.75238 33.6472 8.78617C33.5175 8.81996 33.3961 8.87879 33.29 8.95919C33.184 9.03959 33.0956 9.13993 33.0299 9.25429C32.9642 9.36865 32.9227 9.4947 32.9077 9.62501H32.0802C32.0945 9.38847 32.1584 9.15732 32.268 8.94596C32.3777 8.7346 32.5307 8.54755 32.7175 8.39646C32.9043 8.24538 33.1209 8.13348 33.3539 8.06775C33.5869 8.00202 33.8313 7.98386 34.0718 8.0144C35.1814 8.0144 35.9628 8.62141 35.9628 9.49522C35.9654 9.78795 35.8652 10.0727 35.6788 10.3019C35.4925 10.5312 35.2313 10.691 34.9389 10.7548V10.8197C35.2855 10.8347 35.612 10.9832 35.8469 11.2327C36.0818 11.4823 36.2061 11.8125 36.1925 12.1513C36.1668 12.3949 36.0917 12.631 35.9714 12.8458C35.8512 13.0606 35.6882 13.2498 35.4922 13.4023C35.2961 13.5547 35.0709 13.6675 34.8297 13.7338C34.5885 13.8001 34.3361 13.8187 34.0875 13.7885C33.8383 13.8217 33.5848 13.8056 33.3422 13.741C33.0995 13.6764 32.8726 13.5648 32.6751 13.4127C32.4775 13.2607 32.3133 13.0713 32.1923 12.8559C32.0712 12.6405 31.9958 12.4035 31.9705 12.159H32.8108C32.8616 12.6858 33.3569 13.0256 34.0875 13.0256C34.818 13.0256 35.2949 12.6439 35.2949 12.1059C35.2949 11.5601 34.8457 11.2239 34.0607 11.2239H33.2831V10.4763Z" fill="#01070D"/>
<path d="M37.1472 12.4799C37.1472 11.7318 37.7182 11.3005 38.7291 11.2392L39.8813 11.1743V10.8156C39.8813 10.3767 39.5852 10.1288 39.0105 10.1288C38.5419 10.1288 38.2181 10.2969 38.124 10.5907H37.3114C37.3972 9.87692 38.0853 9.41907 39.0501 9.41907C40.1165 9.41907 40.7179 9.93775 40.7179 10.8156V13.6551H39.9089V13.0711H39.8425C39.7077 13.2806 39.5184 13.4514 39.294 13.566C39.0695 13.6807 38.818 13.735 38.565 13.7236C38.3864 13.7418 38.2059 13.7232 38.0352 13.669C37.8644 13.6148 37.7072 13.5263 37.5736 13.4091C37.4401 13.2919 37.3331 13.1487 37.2596 12.9886C37.1862 12.8286 37.1479 12.6553 37.1472 12.4799ZM39.8813 12.1247V11.7773L38.8426 11.8422C38.2568 11.8805 37.9912 12.0752 37.9912 12.4415C37.9912 12.8156 38.3232 13.0332 38.7799 13.0332C38.9137 13.0465 39.0488 13.0333 39.1773 12.9944C39.3058 12.9556 39.4249 12.8919 39.5277 12.8071C39.6304 12.7224 39.7147 12.6183 39.7754 12.501C39.8362 12.3838 39.8722 12.2558 39.8813 12.1247Z" fill="#01070D"/>
<path d="M42.9456 10.1897V13.6551H42.1062V9.49927H44.9067V10.1896L42.9456 10.1897Z" fill="#01070D"/>
<path d="M49.9939 11.5754C49.9939 12.8958 49.3104 13.7236 48.2366 13.7236C47.9731 13.7412 47.7098 13.6849 47.478 13.5612C47.2461 13.4375 47.0552 13.2517 46.9277 13.0256H46.8613V15.0368H46.0219V9.49928H46.8299V10.1861H46.8927C47.0224 9.95208 47.2158 9.75765 47.4515 9.62429C47.6872 9.49092 47.9561 9.4238 48.2283 9.43035C49.3103 9.43033 49.9939 10.2546 49.9939 11.5754ZM49.1305 11.5754C49.1305 10.6975 48.7052 10.1671 47.9941 10.1671C47.2875 10.1671 46.8456 10.7088 46.8456 11.579C46.8456 12.4452 47.2875 12.9873 47.9904 12.9873C48.7052 12.9873 49.1305 12.4569 49.1305 11.5754Z" fill="#01070D"/>
<path d="M51.1119 15.1436V14.4375C51.2027 14.4487 51.2942 14.4539 51.3858 14.4528C51.5646 14.4657 51.7421 14.4137 51.884 14.3066C52.026 14.1996 52.1225 14.0451 52.1551 13.8728L52.2178 13.6705L50.6783 9.49927H51.5924L52.6588 12.8003H52.7252L53.7878 9.49927H54.678L53.0923 13.8268C52.7289 14.8381 52.3267 15.1626 51.4596 15.1626C51.3895 15.1625 51.1903 15.1549 51.1119 15.1436Z" fill="#01070D"/>
<path d="M55.332 12.4758H56.1677C56.2498 12.8422 56.6013 13.0332 57.0929 13.0332C57.6519 13.0332 57.995 12.7926 57.995 12.4186C57.995 12.018 57.687 11.8269 57.0929 11.8269H56.4564V11.1897H57.0818C57.5892 11.1897 57.8475 10.999 57.8475 10.6516C57.8475 10.3465 57.5975 10.1135 57.0818 10.1135C56.6123 10.1135 56.2692 10.3082 56.2147 10.6363H55.4058C55.4663 10.2593 55.6757 9.92058 55.9892 9.69295C56.3026 9.46533 56.695 9.36699 57.0818 9.41909C58.0928 9.41909 58.6712 9.86568 58.6712 10.5678C58.6759 10.7633 58.6118 10.9545 58.4896 11.1093C58.3673 11.2642 58.1944 11.3734 57.9996 11.4186V11.4835C58.2315 11.5127 58.4443 11.6241 58.5977 11.7965C58.751 11.9688 58.8343 12.1902 58.8317 12.4186C58.8317 13.2086 58.1435 13.7313 57.0929 13.7313C56.164 13.7313 55.4095 13.3154 55.332 12.4758Z" fill="#01070D"/>
<path d="M60.0405 13.6551V9.49927H60.8726V12.3577H60.939L62.8992 9.49928H63.7312V13.6551H62.8992V10.7814H62.8364L60.8726 13.6552L60.0405 13.6551Z" fill="#01070D"/>
<path d="M68.3147 10.1897H66.9753V13.6551H66.135V10.1897H64.7956V9.49932H68.3147V10.1897Z" fill="#01070D"/>
<path d="M72.8365 12.533C72.7221 12.9128 72.4748 13.2413 72.1378 13.4611C71.8007 13.6808 71.3954 13.7779 70.9926 13.7353C70.7123 13.7426 70.4339 13.6901 70.1765 13.5817C69.9191 13.4732 69.6889 13.3113 69.502 13.1072C69.315 12.9031 69.1758 12.6617 69.0939 12.3998C69.012 12.1378 68.9895 11.8616 69.0278 11.5903C68.9905 11.3181 69.0134 11.0413 69.0951 10.7786C69.1768 10.5158 69.3153 10.2733 69.5013 10.0674C69.6872 9.86156 69.9163 9.69712 70.1729 9.58525C70.4296 9.47339 70.7078 9.41671 70.9889 9.41905C72.1723 9.41905 72.8872 10.2091 72.8872 11.5141V11.8003H69.8838V11.8462C69.8705 11.9988 69.89 12.1524 69.9411 12.2971C69.9921 12.4418 70.0736 12.5745 70.1803 12.6867C70.287 12.7988 70.4165 12.8879 70.5605 12.9482C70.7045 13.0085 70.8599 13.0387 71.0165 13.0368C71.2172 13.0603 71.4205 13.0249 71.6005 12.9352C71.7805 12.8455 71.9291 12.7055 72.0275 12.533L72.8365 12.533ZM69.8838 11.1937H72.0312C72.0418 11.0543 72.0224 10.9143 71.9744 10.7826C71.9263 10.6509 71.8506 10.5305 71.7521 10.4291C71.6536 10.3278 71.5345 10.2476 71.4024 10.1939C71.2703 10.1402 71.1282 10.114 70.9852 10.1171C70.8399 10.1152 70.6958 10.1417 70.5612 10.1951C70.4267 10.2486 70.3045 10.3278 70.2018 10.4282C70.0991 10.5285 70.0181 10.648 69.9635 10.7795C69.9089 10.911 69.8817 11.0518 69.8838 11.1937Z" fill="#01070D"/>
<path d="M76.3952 9.49927H78.313C79.145 9.49927 79.633 9.91116 79.633 10.556C79.6343 10.7606 79.5636 10.9595 79.4328 11.1193C79.302 11.2791 79.119 11.3901 78.9144 11.4339V11.4988C79.1628 11.5141 79.3957 11.6221 79.5649 11.8004C79.7342 11.9787 79.8269 12.2137 79.8239 12.4568C79.8239 13.1819 79.2658 13.6551 78.3323 13.6551H76.3952V9.49927ZM77.2273 10.1288V11.205H78.0593C78.5666 11.205 78.8092 11.0143 78.8092 10.6628C78.8092 10.3388 78.598 10.1288 78.1525 10.1288L77.2273 10.1288ZM77.2273 11.8079V13.0256H78.2226C78.7189 13.0256 78.9845 12.8115 78.9845 12.4186C78.9845 12.0026 78.6838 11.8079 78.1174 11.8079L77.2273 11.8079Z" fill="#01070D"/>
</svg>
