<svg width="111" height="39" viewBox="0 0 111 39" fill="none" xmlns="http://www.w3.org/2000/svg">
<rect width="111" height="39" rx="8" fill="white"/>
<path d="M16.8928 18.0947L8.08105 27.3805C8.08105 27.3805 8.08105 27.3839 8.08105 27.3856C8.35086 28.3937 9.27787 29.1356 10.3796 29.1356C10.8206 29.1356 11.2322 29.0171 11.5867 28.811L11.6144 28.7939L21.5331 23.1111L16.8911 18.093L16.8928 18.0947Z" fill="#EA4435"/>
<path d="M25.8071 16.5128L25.7984 16.5076L21.5162 14.0432L16.6926 18.3057L21.5335 23.1109L25.7915 20.6705C26.5386 20.2686 27.0454 19.4872 27.0454 18.5873C27.0454 17.6874 26.5456 16.9146 25.8053 16.5128" fill="#F9BC15"/>
<path d="M8.08129 9.75513C8.02767 9.94919 8 10.1536 8 10.3631V26.7724C8 26.9837 8.02767 27.1863 8.08129 27.3804L17.194 18.3316L8.08129 9.75513Z" fill="#547DBF"/>
<path d="M16.9568 18.5686L21.5175 14.0417L11.611 8.33832C11.2512 8.12365 10.831 8 10.3813 8C9.28132 8 8.35259 8.74362 8.08105 9.75342C8.08105 9.75342 8.08105 9.75342 8.08105 9.75514L16.9586 18.5686H16.9568Z" fill="#33A851"/>
<path d="M55.2625 20.8711C53.3168 20.8711 51.7291 22.3412 51.7291 24.3676C51.7291 26.3941 53.3151 27.8625 55.2625 27.8625C57.2099 27.8625 58.7959 26.3787 58.7959 24.3676C58.7959 22.3566 57.2099 20.8711 55.2625 20.8711ZM55.2625 26.4851C54.1954 26.4851 53.2753 25.611 53.2753 24.3676C53.2753 23.1243 54.1954 22.2484 55.2625 22.2484C56.3296 22.2484 57.248 23.1088 57.248 24.3676C57.248 25.6265 56.3279 26.4851 55.2625 26.4851ZM47.5541 20.8711C45.6085 20.8711 44.0208 22.3412 44.0208 24.3676C44.0208 26.3941 45.6067 27.8625 47.5541 27.8625C49.5016 27.8625 51.0875 26.3787 51.0875 24.3676C51.0875 22.3566 49.4998 20.8711 47.5541 20.8711ZM47.5541 26.4851C46.4888 26.4851 45.5687 25.611 45.5687 24.3676C45.5687 23.1243 46.4888 22.2484 47.5541 22.2484C48.6195 22.2484 49.5413 23.1088 49.5413 24.3676C49.5413 25.6265 48.6212 26.4851 47.5541 26.4851ZM38.3861 21.9445V23.4265H41.9592C41.852 24.2612 41.5735 24.8691 41.1464 25.2933C40.6258 25.8102 39.8129 26.3787 38.3861 26.3787C36.1862 26.3787 34.4653 24.6184 34.4653 22.4339C34.4653 20.2494 36.1844 18.4891 38.3861 18.4891C39.5725 18.4891 40.439 18.9511 41.0789 19.547L42.1322 18.5012C41.238 17.6545 40.0516 17.0053 38.3861 17.0053C35.3733 17.0053 32.8396 19.4423 32.8396 22.4339C32.8396 25.4255 35.3733 27.8625 38.3861 27.8625C40.0118 27.8625 41.238 27.3318 42.1996 26.3392C43.1854 25.3603 43.4933 23.983 43.4933 22.8701C43.4933 22.5266 43.4673 22.2089 43.4137 21.9445H38.3861ZM75.8833 23.0951C75.5893 22.3137 74.6968 20.8711 72.8705 20.8711C71.0441 20.8711 69.5516 22.2879 69.5516 24.3676C69.5516 26.3271 71.0441 27.8625 73.0434 27.8625C74.6571 27.8625 75.5893 26.8836 75.9767 26.3134L74.7764 25.5183C74.3751 26.1005 73.8304 26.4851 73.0434 26.4851C72.2565 26.4851 71.6962 26.1279 71.3364 25.4273L76.0424 23.4935L75.8833 23.0968V23.0951ZM71.0839 24.2612C71.0441 22.9096 72.1372 22.2227 72.9241 22.2227C73.5381 22.2227 74.0586 22.5266 74.2316 22.9646L71.0856 24.2629L71.0839 24.2612ZM67.2565 27.6495H68.8027V17.3763H67.2565V27.6495ZM64.7228 21.6525H64.6692C64.3233 21.2421 63.6557 20.8711 62.8169 20.8711C61.0563 20.8711 59.4444 22.4064 59.4444 24.3797C59.4444 26.3529 61.058 27.8607 62.8169 27.8607C63.6575 27.8607 64.3233 27.4898 64.6692 27.0656H64.7228V27.5688C64.7228 28.9066 64.0034 29.621 62.8429 29.621C61.8968 29.621 61.3088 28.9461 61.0701 28.3777L59.7229 28.9341C60.1085 29.8615 61.1359 31.0001 62.8429 31.0001C64.6554 31.0001 66.1894 29.9405 66.1894 27.3593V21.0841H64.7228V21.6542V21.6525ZM62.9501 26.4851C61.883 26.4851 60.9906 25.599 60.9906 24.3814C60.9906 23.1638 61.883 22.2501 62.9501 22.2501C64.0172 22.2501 64.8301 23.15 64.8301 24.3814C64.8301 25.6127 64.0034 26.4851 62.9501 26.4851ZM83.1281 17.378H79.4287V27.6512H80.9714V23.7597H83.1281C84.8403 23.7597 86.5214 22.5284 86.5214 20.5689C86.5214 18.6093 84.8386 17.378 83.1281 17.378ZM83.1679 22.3291H80.9714V18.8068H83.1679C84.3232 18.8068 84.9787 19.7565 84.9787 20.5671C84.9787 21.3777 84.3232 22.3274 83.1679 22.3274M92.7112 20.8522C91.594 20.8522 90.4352 21.3417 89.9562 22.4236L91.3277 22.992C91.6199 22.4236 92.1665 22.2381 92.7389 22.2381C93.5379 22.2381 94.3491 22.7138 94.3629 23.5588V23.6652C94.0827 23.5072 93.4843 23.2685 92.7528 23.2685C91.2758 23.2685 89.7711 24.074 89.7711 25.5818C89.7711 26.9574 90.9835 27.8419 92.3394 27.8419C93.3788 27.8419 93.9496 27.3799 94.3093 26.8372H94.3629V27.6306H95.8537V23.691C95.8537 21.8672 94.484 20.8505 92.713 20.8505M92.5262 26.48C92.0194 26.48 91.3138 26.2293 91.3138 25.6076C91.3138 24.8142 92.1924 24.5119 92.9516 24.5119C93.6296 24.5119 93.9496 24.6579 94.3629 24.8554C94.2436 25.8068 93.4186 26.4817 92.5262 26.4817M101.284 21.0755L99.5134 25.5303H99.4597L97.623 21.0755H95.9592L98.7143 27.3009L97.1439 30.7631H98.7541L103 21.0755H101.283H101.284ZM87.3758 27.6478H88.9202V17.3746H87.3758V27.6478Z" fill="#01070D"/>
<path d="M34.5172 13.5534C34.1073 13.3199 33.7839 12.9987 33.5487 12.5883C33.3135 12.1778 33.1959 11.7262 33.1959 11.2299C33.1959 10.7335 33.3135 10.2819 33.5487 9.87143C33.7839 9.46098 34.1073 9.13983 34.5172 8.90627C34.9271 8.67271 35.3819 8.55593 35.8818 8.55593C36.6549 8.55593 37.2913 8.83415 37.7894 9.39229L37.236 9.9281C37.0578 9.71858 36.8607 9.56059 36.6428 9.45583C36.4248 9.35107 36.1741 9.29783 35.8904 9.29783C35.5393 9.29783 35.2211 9.37683 34.9323 9.53654C34.6452 9.69626 34.4169 9.92295 34.2474 10.2166C34.0796 10.5103 33.9949 10.8469 33.9949 11.2281C33.9949 11.6094 34.0796 11.946 34.2474 12.2397C34.4152 12.5333 34.6435 12.76 34.9323 12.918C35.2194 13.0777 35.5393 13.1584 35.8904 13.1584C36.4767 13.1584 36.9679 12.918 37.3657 12.4354L37.9347 12.9781C37.6856 13.2684 37.3847 13.4951 37.0353 13.6582C36.6843 13.8196 36.3003 13.9021 35.8835 13.9021C35.3837 13.9021 34.9288 13.7853 34.5189 13.5517L34.5172 13.5534Z" fill="#01070D"/>
<path d="M38.8185 8.671H39.6106V11.1526H39.6538L41.7067 8.671H42.7012V8.71393L40.5272 11.2728L42.817 13.7458V13.7887H41.7794L39.6555 11.4428H39.6123V13.7887H38.8202V8.66928L38.8185 8.671Z" fill="#01070D"/>
<path d="M46.155 8.671L48.1058 13.7904H47.2342L46.7586 12.4749H44.6555L44.1799 13.7904H43.3082L45.2522 8.671H46.155ZM46.5009 11.7451L45.9249 10.1754L45.7312 9.58978H45.688L45.4943 10.1754L44.9184 11.7451H46.5026H46.5009Z" fill="#01070D"/>
<path d="M51.0875 11.5098C50.7658 11.7914 50.3697 11.9323 49.8993 11.9323C49.588 11.9323 49.3061 11.8687 49.0536 11.7433C48.8011 11.618 48.6039 11.4342 48.4604 11.1972C48.3168 10.9585 48.2442 10.6786 48.2442 10.354V8.67443H49.0432V10.2183C49.0432 10.5275 49.1349 10.7679 49.3165 10.9362C49.4981 11.1062 49.7437 11.1904 50.0515 11.1904C50.4683 11.1904 50.8142 11.0289 51.0892 10.7043V8.67443H51.8744V13.7939H51.0892V11.5132L51.0875 11.5098Z" fill="#01070D"/>
<path d="M55.413 8.671L57.3638 13.7904H56.4922L56.0165 12.4749H53.9135L53.4379 13.7904H52.5662L54.5102 8.671H55.413ZM55.7589 11.7451L55.1829 10.1754L54.9892 9.58978H54.946L54.7523 10.1754L54.1764 11.7451H55.7606H55.7589Z" fill="#01070D"/>
<path d="M58.7042 9.41461H57.2566V8.671H60.9352V9.41461H59.4946V13.7904H58.7025V9.41461H58.7042Z" fill="#01070D"/>
<path d="M61.7567 8.671H62.5489V10.4948H63.6436C63.9653 10.4948 64.2628 10.5601 64.536 10.6923C64.8093 10.8228 65.0272 11.0135 65.1915 11.2642C65.3541 11.5149 65.4354 11.8069 65.4354 12.1401C65.4354 12.4732 65.3541 12.7652 65.1915 13.0159C65.0289 13.2666 64.8093 13.4573 64.536 13.5912C64.2628 13.7252 63.9653 13.7922 63.6436 13.7922H61.7567V8.671ZM63.7007 13.0537C63.8875 13.0537 64.0535 13.0108 64.1971 12.9249C64.3406 12.839 64.4513 12.7257 64.5274 12.5849C64.6035 12.444 64.6433 12.2946 64.6433 12.1383C64.6433 11.9821 64.6052 11.8327 64.5274 11.6918C64.4513 11.551 64.3406 11.4377 64.1971 11.3484C64.0535 11.2608 63.8875 11.2161 63.7007 11.2161H62.5489V13.0537H63.7007Z" fill="#01070D"/>
<path d="M67.9864 8.671H68.7716V11.5029L68.7283 12.4904H68.7716L71.0822 8.67271H71.9815V13.7922H71.1963V10.8898L71.2396 9.90234H71.1963L68.8494 13.7922H67.9847V8.67271L67.9864 8.671Z" fill="#01070D"/>
<path d="M73.5329 13.5758C73.2095 13.3559 72.9863 13.0331 72.867 12.6037L73.5934 12.3169C73.6557 12.5831 73.7767 12.7944 73.9566 12.9455C74.1365 13.0983 74.3492 13.1739 74.5931 13.1739C74.8577 13.1739 75.0825 13.0915 75.2693 12.9266C75.4561 12.7617 75.5495 12.5591 75.5495 12.3152C75.5495 12.1572 75.5045 12.0147 75.4128 11.8825C75.3212 11.7519 75.1967 11.6472 75.0393 11.5716C74.8802 11.496 74.7089 11.4565 74.5204 11.4565H74.095V10.7696H74.4772C74.7366 10.7696 74.9528 10.6992 75.1257 10.5584C75.2987 10.4175 75.3852 10.2286 75.3852 9.98993C75.3852 9.78041 75.3056 9.60696 75.1448 9.46785C74.9839 9.33046 74.7833 9.26005 74.5429 9.26005C74.3267 9.26005 74.1451 9.32531 73.9964 9.45239C73.8476 9.5812 73.7439 9.73404 73.6868 9.90921L72.9881 9.62241C73.0884 9.34077 73.2717 9.09175 73.5398 8.87536C73.8061 8.65897 74.1434 8.55078 74.5515 8.55078C74.8629 8.55078 75.1413 8.61089 75.3834 8.73282C75.6256 8.85475 75.8158 9.02134 75.9524 9.23257C76.0891 9.44552 76.1582 9.68424 76.1582 9.95043C76.1582 10.4467 75.9403 10.8125 75.5028 11.0513V11.0942C75.7484 11.2041 75.9472 11.3638 76.1012 11.5733C76.2551 11.7828 76.3312 12.0387 76.3312 12.3393C76.3312 12.6398 76.2551 12.894 76.1046 13.1327C75.9542 13.3714 75.7449 13.5586 75.482 13.6943C75.2174 13.8299 74.9234 13.8986 74.5965 13.8986C74.2126 13.8986 73.858 13.7887 73.5346 13.5689L73.5329 13.5758Z" fill="#01070D"/>
</svg>
