<svg width="33" height="18" viewBox="0 0 33 18" fill="none" xmlns="http://www.w3.org/2000/svg">
<path d="M19.6099 3.49658H13.3906V14.5034H19.6099V3.49658Z" fill="#FF5F00"/>
<path d="M13.7854 9C13.7844 7.93997 14.0283 6.8936 14.4987 5.94013C14.969 4.98666 15.6534 4.15106 16.5002 3.4966C15.4516 2.68492 14.1924 2.18015 12.8663 2.03998C11.5402 1.89981 10.2009 2.12989 9.00131 2.70394C7.80174 3.27799 6.79037 4.17285 6.0828 5.28621C5.37523 6.39958 5 7.68654 5 9C5 10.3135 5.37523 11.6004 6.0828 12.7138C6.79037 13.8272 7.80174 14.722 9.00131 15.2961C10.2009 15.8701 11.5402 16.1002 12.8663 15.96C14.1924 15.8199 15.4516 15.3151 16.5002 14.5034C15.6535 13.8489 14.969 13.0133 14.4987 12.0599C14.0284 11.1064 13.7844 10.06 13.7854 9Z" fill="#EB001B"/>
<path d="M27.9998 9C27.9999 10.3134 27.6247 11.6004 26.9171 12.7138C26.2096 13.8271 25.1983 14.722 23.9987 15.296C22.7992 15.8701 21.4599 16.1002 20.1338 15.96C18.8078 15.8199 17.5485 15.3151 16.5 14.5034C17.346 13.8483 18.0299 13.0125 18.5001 12.0592C18.9704 11.1059 19.2147 10.0599 19.2147 9C19.2147 7.94013 18.9704 6.8941 18.5001 5.94077C18.0299 4.98745 17.346 4.15172 16.5 3.4966C17.5485 2.68492 18.8078 2.18015 20.1338 2.03998C21.4599 1.89981 22.7992 2.1299 23.9987 2.70396C25.1983 3.27801 26.2096 4.17287 26.9171 5.28623C27.6247 6.3996 27.9999 7.68656 27.9998 9Z" fill="#F79E1B"/>
</svg>
