<svg width="45" height="18" viewBox="0 0 45 18" fill="none" xmlns="http://www.w3.org/2000/svg">
<path d="M30.354 8.74731V13.9908H33.6761V11.0413H37.0177C38.7662 11.0413 40.2524 10.0863 40.8255 8.74731H30.354Z" fill="#006848"/>
<path d="M39.8053 4.92693C39.1545 4.35581 38.2996 4 37.3477 4H30.208C30.2177 4.27151 30.2663 4.52432 30.3246 4.77713C30.344 4.83332 30.3537 4.88952 30.3732 4.94571C30.3829 4.96442 30.3829 4.99252 30.3926 5.01122C30.9852 6.81835 32.7433 8.13858 34.8124 8.13858H40.9418C40.9807 7.93258 41.0001 7.72658 41.0001 7.52058C41.0001 6.49065 40.5338 5.57303 39.8053 4.92693Z" fill="url(#paint0_linear_167_7749)"/>
<path d="M24.477 5.05803L22.1554 9.90822H21.9223V4H18.6196V14H21.4172C22.1554 14 22.8257 13.588 23.1268 12.942L25.4484 8.09178H25.6815V14H28.9842V4H26.1867C25.4484 4 24.7879 4.412 24.477 5.05803Z" fill="#006848"/>
<path d="M9.10948 5.31084L10.4888 9.90822H10.722L12.0916 5.31084C12.3248 4.53371 13.063 4 13.9081 4H17.2011V14H13.8984V8.09178H13.6653L11.7808 14H9.42032L7.53584 8.09178H7.30271V14H4V4H7.29299C8.13809 4 8.87635 4.53371 9.10948 5.31084Z" fill="#006848"/>
<defs>
<linearGradient id="paint0_linear_167_7749" x1="30.2036" y1="6.07203" x2="40.9967" y2="6.07203" gradientUnits="userSpaceOnUse">
<stop offset="0.00537635" stop-color="#00AFFF"/>
<stop offset="1" stop-color="#1F5BD7"/>
</linearGradient>
</defs>
</svg>
