<svg width="40" height="18" viewBox="0 0 40 18" fill="none" xmlns="http://www.w3.org/2000/svg">
<path d="M15.6687 4.17659L10.9555 13.8486H7.88053L5.56117 6.12989C5.42036 5.65446 5.29792 5.48029 4.86967 5.28C4.17049 4.95375 3.01587 4.64766 2 4.45768L2.069 4.17659H7.01879C7.64972 4.17659 8.2169 4.53783 8.36015 5.16275L9.58509 10.7594L12.6124 4.17643L15.6687 4.17659ZM27.717 10.6909C27.7294 8.13818 23.613 7.99755 23.6413 6.85721C23.6501 6.51016 24.0343 6.14118 24.8753 6.04699C25.2921 6.00006 26.4405 5.96426 27.7431 6.47984L28.254 4.42882C27.5541 4.2103 26.6535 4 25.533 4C22.6577 4 20.6342 5.31467 20.6172 7.19717C20.5986 8.58957 22.0615 9.36657 23.1636 9.82925C24.2974 10.3031 24.6778 10.6075 24.6735 11.0314C24.6654 11.6801 23.7692 11.9666 22.9316 11.9778C21.4695 11.9972 20.6211 11.6376 19.9448 11.3671L19.4175 13.486C20.0972 13.7542 21.3518 13.9882 22.6525 14C25.7085 14 27.7076 12.7016 27.717 10.6909ZM35.3096 13.8487H38L35.6516 4.17659H33.1683C32.61 4.17659 32.139 4.45623 31.9305 4.88618L27.5653 13.8486H30.6199L31.2262 12.4039H34.9584L35.3096 13.8487ZM32.0638 10.4218L33.5949 6.79029L34.4761 10.4218H32.0638ZM19.825 4.17659L17.4195 13.8486H14.5107L16.917 4.17659H19.825Z" fill="#1434CB"/>
</svg>
