<svg width="400" height="400" xmlns="http://www.w3.org/2000/svg">
 <g>
  <path id="svg_1" fill="#ACAEB8" d="m221.492675,177.901098c0,-5.799 4.701,-10.5 10.5,-10.5c5.799,0 10.5,4.701 10.5,10.5c0,5.799 -4.701,10.5 -10.5,10.5c-5.799,0 -10.5,-4.701 -10.5,-10.5zm10.5,-5.5c-3.038,0 -5.5,2.4624 -5.5,5.5c0,3.0376 2.462,5.5 5.5,5.5c3.038,0 5.5,-2.4624 5.5,-5.5c0,-3.0376 -2.462,-5.5 -5.5,-5.5z" clip-rule="evenodd" fill-rule="evenodd"/>
  <path stroke="null" id="svg_2" fill="#ACAEB8" d="m147.499996,163.000004c0,-2.4853 2.0147,-4.5 4.5,-4.5l96,0c2.485,0 4.5,2.0147 4.5,4.5l0,74c0,2.485 -2.015,4.5 -4.5,4.5l-96,0c-2.4853,0 -4.5,-2.015 -4.5,-4.5l0,-74zm5,61.123l0,12.377l95,0l0,-12.341l-23.423,-19.819l-10.9933,10.2081c-1.7466,1.6219 -4.4548,1.6005 -6.1756,-0.0486l-20.9718,-20.098l-33.4363,29.7215zm0,-6.6901l30.4594,-27.075c1.7532,-1.5585 4.4096,-1.5087 6.1032,0.1143l20.9645,20.091l10.9725,-10.1888c1.6683,-1.5491 4.2304,-1.6082 5.9684,-0.1376l20.532,17.3729l0,-54.1097l-95,0l0,53.9329z" clip-rule="evenodd" fill-rule="evenodd"/>
 </g>
</svg>
