<svg width="22" height="16" viewBox="0 0 22 16" fill="none" xmlns="http://www.w3.org/2000/svg">
<g clip-path="url(#clip0_2481_20783)">
<path d="M7.53807 1.08863C7.88015 0.420395 8.56764 0 9.31835 0L16.6817 0C17.4324 0 18.1199 0.420396 18.4619 1.08864L21.5335 7.08864C21.8264 7.6609 21.8264 8.3391 21.5335 8.91136L18.4619 14.9114C18.1198 15.5796 17.4324 16 16.6817 16H9.31835C8.56764 16 7.88015 15.5796 7.53806 14.9114L4.46654 8.91136C4.17359 8.3391 4.17359 7.6609 4.46655 7.08864L7.53807 1.08863Z" fill="#FFDDDB"/>
<path d="M5.53807 1.08863C5.88015 0.420395 6.56764 0 7.31835 0L14.6817 0C15.4324 0 16.1199 0.420396 16.4619 1.08864L19.5335 7.08864C19.8264 7.6609 19.8264 8.3391 19.5335 8.91136L16.4619 14.9114C16.1198 15.5796 15.4324 16 14.6817 16H7.31835C6.56764 16 5.88015 15.5796 5.53806 14.9114L2.46654 8.91136C2.17359 8.3391 2.17359 7.6609 2.46655 7.08864L5.53807 1.08863Z" fill="white"/>
<path d="M3.53807 1.08863C3.88015 0.420395 4.56764 0 5.31835 0L12.6817 0C13.4324 0 14.1199 0.420396 14.4619 1.08864L17.5335 7.08864C17.8264 7.6609 17.8264 8.3391 17.5335 8.91136L14.4619 14.9114C14.1198 15.5796 13.4324 16 12.6817 16H5.31835C4.56764 16 3.88015 15.5796 3.53806 14.9114L0.466545 8.91136C0.173592 8.3391 0.173592 7.6609 0.466545 7.08864L3.53807 1.08863Z" fill="#FF5F54"/>
</g>
<defs>
<clipPath id="clip0_2481_20783">
<rect width="22" height="16" fill="white"/>
</clipPath>
</defs>
</svg>
