<svg width="228" height="54" viewBox="0 0 228 54" fill="none" xmlns="http://www.w3.org/2000/svg">
<path d="M18.201 2.42863C19.3326 0.900979 21.1212 0 23.0224 0H204.978C206.879 0 208.667 0.900979 209.799 2.42863L225.355 23.4286C226.926 25.5502 226.926 28.4498 225.355 30.5714L209.799 51.5714C208.667 53.099 206.879 54 204.978 54H23.0223C21.1212 54 19.3326 53.099 18.201 51.5714L2.64546 30.5714C1.07391 28.4498 1.07391 25.5502 2.64546 23.4286L18.201 2.42863Z" fill="#E5F2FF"/>
<path d="M18.201 2.42863C19.3326 0.900979 21.1212 0 23.0224 0H194.978C196.879 0 198.667 0.900979 199.799 2.42863L215.354 23.4286C216.926 25.5502 216.926 28.4498 215.354 30.5714L199.799 51.5714C198.667 53.099 196.879 54 194.978 54H23.0224C21.1212 54 19.3326 53.099 18.201 51.5714L2.64546 30.5714C1.07391 28.4498 1.07391 25.5502 2.64546 23.4286L18.201 2.42863Z" fill="white"/>
<path d="M18.201 2.42863C19.3326 0.900979 21.1212 0 23.0224 0H184.978C186.879 0 188.667 0.900979 189.799 2.42863L205.355 23.4286C206.926 25.5502 206.926 28.4498 205.355 30.5714L189.799 51.5714C188.667 53.099 186.879 54 184.978 54H23.0224C21.1212 54 19.3326 53.099 18.201 51.5714L2.64546 30.5714C1.07391 28.4498 1.07391 25.5502 2.64546 23.4286L18.201 2.42863Z" fill="#E5F2FF"/>
</svg>
