<svg width="255" height="46" viewBox="0 0 255 46" fill="none" xmlns="http://www.w3.org/2000/svg">
<g clip-path="url(#clip0_2481_20533)">
<path d="M15.2012 2.43365C16.3325 0.903052 18.123 0 20.0263 0L234.974 0C236.877 0 238.667 0.903053 239.799 2.43365L252.364 19.4337C253.931 21.5532 253.931 24.4468 252.364 26.5663L239.799 43.5663C238.667 45.0969 236.877 46 234.974 46H20.0263C18.123 46 16.3325 45.0969 15.2012 43.5663L2.63599 26.5663C1.0694 24.4468 1.0694 21.5532 2.636 19.4337L15.2012 2.43365Z" fill="#FFBCB7"/>
<path d="M15.2012 2.43365C16.3325 0.903052 18.123 0 20.0263 0H226.974C228.877 0 230.667 0.903053 231.799 2.43365L244.364 19.4337C245.931 21.5532 245.931 24.4468 244.364 26.5663L231.799 43.5663C230.667 45.0969 228.877 46 226.974 46H20.0263C18.123 46 16.3325 45.0969 15.2012 43.5663L2.63599 26.5663C1.0694 24.4468 1.0694 21.5532 2.636 19.4337L15.2012 2.43365Z" fill="white"/>
<path d="M15.2012 2.43365C16.3325 0.903052 18.123 0 20.0263 0H218.974C220.877 0 222.667 0.903053 223.799 2.43365L236.364 19.4337C237.931 21.5532 237.931 24.4468 236.364 26.5663L223.799 43.5663C222.667 45.0969 220.877 46 218.974 46H20.0263C18.123 46 16.3325 45.0969 15.2012 43.5663L2.63599 26.5663C1.0694 24.4468 1.0694 21.5532 2.636 19.4337L15.2012 2.43365Z" fill="#FF5F54"/>
</g>
<defs>
<clipPath id="clip0_2481_20533">
<rect width="255" height="46" fill="white"/>
</clipPath>
</defs>
</svg>
