<svg width="20" height="20" viewBox="0 0 20 20" fill="none" xmlns="http://www.w3.org/2000/svg">
<g clip-path="url(#clip0_8063_15807)">
<path fill-rule="evenodd" clip-rule="evenodd" d="M10 16.772C6.11143 13.9548 3.9205 11.4351 2.8495 9.37239C1.73312 7.22224 1.86331 5.64963 2.40807 4.6627C3.49069 2.70132 6.92795 2.115 9.22917 4.89981L10 5.83267L10.7709 4.89981C13.0721 2.115 16.5094 2.70132 17.592 4.6627C18.1368 5.64963 18.2669 7.22224 17.1506 9.37239C16.0796 11.4351 13.8886 13.9548 10 16.772ZM10 2.81852C6.95614 0.0651715 2.41834 0.505367 0.657092 3.69622C-0.298102 5.42674 -0.256621 7.73026 1.0745 10.294C2.39935 12.8456 5.02983 15.733 9.42549 18.8186L10 19.2219L10.5746 18.8186C14.9702 15.733 17.6007 12.8456 18.9256 10.294C20.2567 7.73026 20.2982 5.42674 19.343 3.69622C17.5817 0.505367 13.0439 0.0651715 10 2.81852Z" fill="white"/>
<path d="M10 18C-7.28974 5.86313 4.70986 -2.1392 10 4.26266C15.2901 -2.1392 27.2897 5.86313 10 18Z" fill="white"/>
<path fill-rule="evenodd" clip-rule="evenodd" d="M8.92085 3.21516C9.30146 3.50806 9.66424 3.85635 10 4.26266C10.3358 3.85635 10.6985 3.50806 11.0791 3.21516C16.6953 -1.10676 26.1924 6.63343 10 18C-6.19239 6.63343 3.30465 -1.10676 8.92085 3.21516ZM10 16.1526C13.6665 13.4504 15.7102 11.0612 16.7068 9.14183C17.7695 7.09509 17.5964 5.7052 17.1542 4.90417C16.2803 3.32083 13.2856 2.64141 11.1563 5.21816L10 6.61745L8.8437 5.21816C6.71442 2.64141 3.71973 3.32083 2.84578 4.90417C2.40363 5.7052 2.23053 7.09509 3.29322 9.14183C4.28979 11.0612 6.33345 13.4504 10 16.1526Z" fill="#01070D"/>
</g>
<defs>
<clipPath id="clip0_8063_15807">
<rect width="20" height="20" fill="white"/>
</clipPath>
</defs>
</svg>
