<svg width="119" height="50" viewBox="0 0 119 50" fill="none" xmlns="http://www.w3.org/2000/svg">
    <path d="M16.2269 45.9868L16.2935 45.974L46.7233 41.9863C46.7233 41.9863 46.7302 41.9863 46.733 41.9837C46.9326 41.9133 47.0435 41.7124 46.9839 41.5204L45.8763 38.0024C45.85 37.9192 45.8029 37.8398 45.728 37.7861C45.6199 37.7093 45.4854 37.6863 45.3579 37.7208L45.3177 37.7323L20.3966 40.233C19.6786 40.4019 18.9356 40.0142 18.7276 39.3512L11.78 17.2957C11.6386 16.8478 11.7731 16.3653 12.1307 16.0352L21.8812 7.03328C22.1876 6.75045 22.6187 6.56744 23.0512 6.53673C24.6217 6.42667 24.874 6.94497 39.0438 15.275C39.0451 15.275 39.0465 15.2763 39.0479 15.2775C39.2087 15.426 39.4707 15.426 39.6329 15.2775L42.4566 12.6707C42.6174 12.5222 42.6174 12.2803 42.4566 12.1306L23.1482 0.10846C22.9916 -0.0361534 22.7199 -0.0361534 22.5632 0.10846L0.120686 20.8279C0.0278104 20.9149 -0.016548 21.0352 0.00563118 21.1593C0.0194932 21.2451 0.0721687 21.3219 0.140092 21.3833L2.94437 23.9736C3.10101 24.1182 3.37271 24.1182 3.52935 23.9736L6.00787 21.6853C6.27264 21.4409 6.61918 21.3104 6.98098 21.3104C7.09742 21.3104 7.21386 21.3244 7.33031 21.3513C7.80854 21.4652 8.17727 21.7941 8.31451 22.2318L15.7154 45.7245C15.7792 45.9267 16.0093 46.0444 16.2283 45.9843" fill="#007AFF"/>
    <path d="M27 32.7975V21.2025H30.2092V26.3502L35.0857 21.2025H39.0659L34.4762 25.9451L39.1555 32.7975H35.3547L32.253 28.0042L30.2092 29.7764V32.7975H27Z" fill="#01070D"/>
    <path d="M46.0385 33C44.6879 33 43.5285 32.7806 42.5604 32.3418C41.6042 31.8917 40.8691 31.2222 40.3552 30.3333C39.8412 29.4444 39.5843 28.3305 39.5843 26.9916C39.5843 25.6526 39.8412 24.5443 40.3552 23.6667C40.8691 22.7778 41.6042 22.1139 42.5604 21.6751C43.5285 21.225 44.6879 21 46.0385 21C47.3891 21 48.5425 21.225 49.4987 21.6751C50.4668 22.1139 51.2079 22.7778 51.7218 23.6667C52.2358 24.5443 52.4928 25.6526 52.4928 26.9916C52.4928 28.3305 52.2358 29.4444 51.7218 30.3333C51.2079 31.2222 50.4668 31.8917 49.4987 32.3418C48.5425 32.7806 47.3891 33 46.0385 33ZM46.0385 30.6371C46.5525 30.6371 47.0066 30.564 47.4011 30.4177C47.7955 30.2714 48.1242 30.0577 48.3871 29.7764C48.662 29.4951 48.8652 29.1519 48.9967 28.7468C49.1282 28.3418 49.1939 27.8861 49.1939 27.3797V26.6371C49.1939 26.1196 49.1282 25.6582 48.9967 25.2532C48.8652 24.8481 48.662 24.5049 48.3871 24.2236C48.1242 23.9423 47.7955 23.7286 47.4011 23.5823C47.0066 23.436 46.5525 23.3629 46.0385 23.3629C45.5126 23.3629 45.0524 23.436 44.658 23.5823C44.2636 23.7286 43.9349 23.9423 43.6719 24.2236C43.409 24.5049 43.2118 24.8481 43.0803 25.2532C42.9488 25.6582 42.8831 26.1196 42.8831 26.6371V27.3797C42.8831 27.8861 42.9488 28.3418 43.0803 28.7468C43.2118 29.1519 43.409 29.4951 43.6719 29.7764C43.9349 30.0577 44.2636 30.2714 44.658 30.4177C45.0524 30.564 45.5126 30.6371 46.0385 30.6371Z" fill="#01070D"/>
    <path d="M58.0146 32.7975L53.5863 21.2025H57.0285L59.2875 27.7511C59.3353 27.8861 59.3951 28.0661 59.4668 28.2911C59.5385 28.5049 59.6102 28.73 59.6819 28.9662C59.7656 29.1913 59.8313 29.3938 59.8792 29.5738H60.0047C60.0644 29.4051 60.1242 29.2138 60.1839 29C60.2556 28.775 60.3274 28.5556 60.3991 28.3418C60.4708 28.1167 60.5306 27.9255 60.5784 27.7679L62.8373 21.2025H66.1541L61.7437 32.7975H58.0146Z" fill="#01070D"/>
    <path d="M68.0996 32.7975V21.2025H71.3088V26.3502L76.1854 21.2025H80.1655L75.5758 25.9451L80.2551 32.7975H76.4543L73.3527 28.0042L71.3088 29.7764V32.7975H68.0996Z" fill="#007AFF"/>
    <path d="M82.2906 32.7975V21.2025H92.456V23.5654H85.4998V25.7426H91.5775V28.0549H85.4998V30.4346H92.5815V32.7975H82.2906Z" fill="#007AFF"/>
    <path d="M95.1492 32.7975V21.2025H102.303C103.211 21.2025 103.97 21.3657 104.58 21.692C105.189 22.007 105.643 22.4459 105.942 23.0084C106.253 23.5598 106.408 24.1786 106.408 24.865C106.408 25.6076 106.223 26.2714 105.853 26.8565C105.494 27.4304 104.986 27.8805 104.329 28.2068L106.803 32.7975H103.217L101.173 28.7131H98.3584V32.7975H95.1492ZM98.3584 26.4684H101.675C102.117 26.4684 102.47 26.3333 102.733 26.0633C103.008 25.782 103.145 25.4107 103.145 24.9494C103.145 24.6456 103.086 24.3868 102.966 24.173C102.847 23.9592 102.679 23.7961 102.464 23.6835C102.249 23.5598 101.986 23.4979 101.675 23.4979H98.3584V26.4684Z" fill="#007AFF"/>
    <path d="M111.793 32.7975V23.6835H107.795V21.2025H119V23.6835H115.002V32.7975H111.793Z" fill="#007AFF"/>
</svg>
