<svg width="15" height="12" viewBox="0 0 15 12" fill="none" xmlns="http://www.w3.org/2000/svg">
<path d="M10.3322 2.6263C10.5386 2.80976 10.5572 3.1258 10.3737 3.33219L5.04038 9.33219C4.94549 9.43893 4.80949 9.5 4.66667 9.5C4.52385 9.5 4.38785 9.43893 4.29297 9.33219L1.6263 6.33219C1.44284 6.1258 1.46143 5.80976 1.66782 5.6263C1.87421 5.44284 2.19025 5.46143 2.37371 5.66782L4.66667 8.2474L9.6263 2.66782C9.80976 2.46143 10.1258 2.44284 10.3322 2.6263Z" fill="#007aff" stroke="#D3ECFF" stroke-width="0.5" stroke-linecap="round" stroke-linejoin="round"/>
<path d="M13.8322 3.1263C14.0386 3.30976 14.0572 3.6258 13.8737 3.83219L8.54038 9.83219C8.44549 9.93893 8.30949 10 8.16667 10C8.02385 10 7.88785 9.93893 7.79297 9.83219L5.1263 6.83219C4.94284 6.6258 4.96143 6.30976 5.16782 6.1263C5.37421 5.94284 5.69025 5.96143 5.87371 6.16782L8.16667 8.7474L13.1263 3.16782C13.3098 2.96143 13.6258 2.94284 13.8322 3.1263Z" fill="#007aff" stroke="#D3ECFF" stroke-width="0.5" stroke-linecap="round" stroke-linejoin="round"/>
</svg>
