<svg width="10" height="10" viewBox="0 0 10 10" fill="none" xmlns="http://www.w3.org/2000/svg">
<path d="M5 1C2.79086 1 1 2.79086 1 5C1 7.20914 2.79086 9 5 9C7.20914 9 9 7.20914 9 5C9 2.79086 7.20914 1 5 1ZM0 5C0 2.23858 2.23858 0 5 0C7.76142 0 10 2.23858 10 5C10 7.76142 7.76142 10 5 10C2.23858 10 0 7.76142 0 5Z" fill="#FF1111"/>
<path d="M5 6C4.72386 6 4.5 5.77614 4.5 5.5L4.5 2.5C4.5 2.22386 4.72386 2 5 2C5.27614 2 5.5 2.22386 5.5 2.5L5.5 5.5C5.5 5.77614 5.27614 6 5 6Z" fill="#FF1111"/>
<path d="M4.25 7.25C4.25 6.83579 4.58579 6.5 5 6.5C5.41421 6.5 5.75 6.83579 5.75 7.25C5.75 7.66421 5.41421 8 5 8C4.58579 8 4.25 7.66421 4.25 7.25Z" fill="#FF1111"/>
</svg>
