<svg width="16" height="16" viewBox="0 0 16 16" fill="none" xmlns="http://www.w3.org/2000/svg">
<path fill-rule="evenodd" clip-rule="evenodd" d="M7.99994 1.66669C8.25245 1.66669 8.48329 1.80936 8.59622 2.03521L10.3155 5.47375L14.0959 6.02363C14.347 6.06015 14.5556 6.23604 14.634 6.47735C14.7124 6.71866 14.647 6.98356 14.4653 7.16069L11.7139 9.84332L12.3329 13.6257C12.3738 13.8757 12.2695 14.1272 12.0637 14.2749C11.8579 14.4226 11.5862 14.441 11.3625 14.3223L7.99994 12.5381L4.63742 14.3223C4.41366 14.441 4.14196 14.4226 3.93618 14.2749C3.73041 14.1272 3.62612 13.8757 3.66702 13.6257L4.28596 9.84332L1.53454 7.16069C1.35287 6.98356 1.28749 6.71866 1.3659 6.47735C1.4443 6.23604 1.65289 6.06015 1.90398 6.02363L5.68438 5.47375L7.40365 2.03521C7.51658 1.80936 7.74742 1.66669 7.99994 1.66669Z" fill="#D3ECFF"/>
</svg>
